<svg width="16" height="16" viewBox="0 0 16 16" fill="none" xmlns="http://www.w3.org/2000/svg">
<g clip-path="url(#clip0)">
<path d="M7.56094 12.1385L0.180933 4.73802C-0.0607219 4.49555 -0.0603157 4.10299 0.182183 3.86093C0.424651 3.61906 0.817431 3.61968 1.05927 3.86218L8.00003 10.8222L14.9407 3.86193C15.1826 3.61946 15.5752 3.61884 15.8177 3.86068C15.9392 3.98202 16 4.14099 16 4.29996C16 4.45852 15.9396 4.61686 15.8189 4.73799L8.43909 12.1385C8.3229 12.2553 8.16478 12.3208 8.00003 12.3208C7.83528 12.3208 7.67734 12.2551 7.56094 12.1385Z" fill="black"/>
<path d="M7.56094 12.1385L0.180933 4.73802C-0.0607219 4.49555 -0.0603157 4.10299 0.182183 3.86093C0.424651 3.61906 0.817431 3.61968 1.05927 3.86218L8.00003 10.8222L14.9407 3.86193C15.1826 3.61946 15.5752 3.61884 15.8177 3.86068C15.9392 3.98202 16 4.14099 16 4.29996C16 4.45852 15.9396 4.61686 15.8189 4.73799L8.43909 12.1385C8.3229 12.2553 8.16478 12.3208 8.00003 12.3208C7.83528 12.3208 7.67734 12.2551 7.56094 12.1385Z" fill="url(#paint0_linear)"/>
</g>
<defs>
<linearGradient id="paint0_linear" x1="-1.88858e-07" y1="8.00025" x2="16" y2="8.00025" gradientUnits="userSpaceOnUse">
<stop stop-color="#59F37B"/>
<stop offset="1" stop-color="#08D8F4"/>
</linearGradient>
<clipPath id="clip0">
<rect width="16" height="16" fill="white" transform="matrix(-4.37114e-08 1 1 4.37114e-08 0 0)"/>
</clipPath>
</defs>
</svg>
