<svg width="14" height="14" viewBox="0 0 14 14" fill="none" xmlns="http://www.w3.org/2000/svg">
<g clip-path="url(#clip0)">
<path d="M7.38312 10.6196L13.8398 4.14503C14.0512 3.9329 14.0508 3.58946 13.8387 3.37768C13.6265 3.16607 13.2829 3.16662 13.0713 3.37878L6.99897 9.46793L0.926659 3.37856C0.715048 3.16643 0.371631 3.16588 0.159472 3.37746C0.0531206 3.48362 -5.62844e-05 3.6227 -5.62905e-05 3.76178C-5.62966e-05 3.9005 0.0527649 4.03903 0.158379 4.145L6.61484 10.6196C6.71649 10.7217 6.85483 10.7791 6.99897 10.7791C7.14311 10.7791 7.28128 10.7216 7.38312 10.6196Z" fill="black"/>
<path d="M7.38312 10.6196L13.8398 4.14503C14.0512 3.9329 14.0508 3.58946 13.8387 3.37768C13.6265 3.16607 13.2829 3.16662 13.0713 3.37878L6.99897 9.46793L0.926659 3.37856C0.715048 3.16643 0.371631 3.16588 0.159472 3.37746C0.0531206 3.48362 -5.62844e-05 3.6227 -5.62905e-05 3.76178C-5.62966e-05 3.9005 0.0527649 4.03903 0.158379 4.145L6.61484 10.6196C6.71649 10.7217 6.85483 10.7791 6.99897 10.7791C7.14311 10.7791 7.28128 10.7216 7.38312 10.6196Z" fill="url(#paint0_linear)"/>
</g>
<defs>
<linearGradient id="paint0_linear" x1="13.998" y1="6.99909" x2="-5.6432e-05" y2="6.99909" gradientUnits="userSpaceOnUse">
<stop stop-color="#59F37B"/>
<stop offset="1" stop-color="#08D8F4"/>
</linearGradient>
<clipPath id="clip0">
<rect width="13.9981" height="13.9981" fill="white" transform="translate(13.998) rotate(90)"/>
</clipPath>
</defs>
</svg>
