<svg width="69" height="49" viewBox="0 0 69 49" fill="none" xmlns="http://www.w3.org/2000/svg">
<path d="M6.868 23.272C5.47778 23.272 4.29911 23.0378 3.332 22.5693C2.36489 22.0858 1.54133 21.4662 0.861333 20.7107L3.128 18.4213C4.20089 19.6302 5.52311 20.2347 7.09467 20.2347C7.94089 20.2347 8.568 20.0609 8.976 19.7133C9.384 19.3658 9.588 18.9049 9.588 18.3307C9.588 17.8924 9.46711 17.5298 9.22533 17.2427C8.98356 16.9404 8.49244 16.7364 7.752 16.6307L6.188 16.4267C4.51067 16.2151 3.27911 15.7089 2.49333 14.908C1.72267 14.1071 1.33733 13.0418 1.33733 11.712C1.33733 11.0018 1.47333 10.352 1.74533 9.76267C2.01733 9.17333 2.40267 8.66711 2.90133 8.244C3.41511 7.82089 4.03467 7.496 4.76 7.26933C5.50044 7.02756 6.33911 6.90667 7.276 6.90667C8.46978 6.90667 9.52 7.09555 10.4267 7.47333C11.3333 7.85111 12.1116 8.40267 12.7613 9.128L10.472 11.44C10.0942 11.0018 9.63333 10.6467 9.08933 10.3747C8.56044 10.0876 7.888 9.944 7.072 9.944C6.30133 9.944 5.72711 10.08 5.34933 10.352C4.97156 10.624 4.78267 11.0018 4.78267 11.4853C4.78267 12.0293 4.92622 12.4222 5.21333 12.664C5.51556 12.9058 5.99911 13.0796 6.664 13.1853L8.228 13.4347C9.86 13.6916 11.0689 14.1978 11.8547 14.9533C12.6404 15.6938 13.0333 16.7516 13.0333 18.1267C13.0333 18.8822 12.8973 19.5773 12.6253 20.212C12.3533 20.8467 11.9529 21.3907 11.424 21.844C10.9102 22.2973 10.268 22.6524 9.49733 22.9093C8.72667 23.1511 7.85022 23.272 6.868 23.272ZM21.9546 10.2387V23H18.5093V10.2387H14.2253V7.17867H26.2386V10.2387H21.9546ZM27.8951 23V20.2573H29.9351V9.92133H27.8951V7.17867H35.4204V9.92133H33.3804V20.2573H35.4204V23H27.8951ZM44.6829 23.272C43.61 23.272 42.6429 23.1058 41.7816 22.7733C40.9202 22.4258 40.1873 21.9196 39.5829 21.2547C38.9785 20.5747 38.51 19.736 38.1776 18.7387C37.8451 17.7262 37.6789 16.5476 37.6789 15.2027C37.6789 13.8729 37.8451 12.6942 38.1776 11.6667C38.51 10.624 38.9785 9.75511 39.5829 9.06C40.1873 8.34978 40.9202 7.81333 41.7816 7.45067C42.6429 7.088 43.61 6.90667 44.6829 6.90667C46.1487 6.90667 47.3576 7.20889 48.3096 7.81333C49.2616 8.40267 50.0247 9.33956 50.5989 10.624L47.6296 12.1653C47.418 11.5004 47.0856 10.9716 46.6322 10.5787C46.194 10.1707 45.5442 9.96667 44.6829 9.96667C43.6705 9.96667 42.8545 10.2991 42.2349 10.964C41.6305 11.6138 41.3282 12.5658 41.3282 13.82V16.3587C41.3282 17.6129 41.6305 18.5724 42.2349 19.2373C42.8545 19.8871 43.6705 20.212 44.6829 20.212C45.5291 20.212 46.2016 19.9853 46.7002 19.532C47.214 19.0636 47.5918 18.5044 47.8336 17.8547L50.6442 19.4867C50.0549 20.6956 49.2767 21.6324 48.3096 22.2973C47.3576 22.9471 46.1487 23.272 44.6829 23.272ZM58.5632 16.1093L56.5006 18.6027V23H53.0552V7.17867H56.5006V14.704H56.6366L58.8806 11.644L62.4392 7.17867H66.3379L61.0112 13.684L66.8139 23H62.7566L58.5632 16.1093Z" fill="white"/>
<path d="M10.89 36.0994H5.038V42.3914H1.694V27.0354H5.038V33.1514H10.89V27.0354H14.234V42.3914H10.89V36.0994ZM17.6139 42.3914V27.0354H28.0639V30.0054H20.9579V33.1514H27.0519V36.0994H20.9579V39.4214H28.0639V42.3914H17.6139ZM30.3832 42.3914V39.7294H32.3632V29.6974H30.3832V27.0354H37.6872V29.6974H35.7072V39.7294H37.6872V42.3914H30.3832ZM45.1593 35.1314L43.6853 32.0514H43.6193V42.3914H40.4733V27.0354H44.1253L48.3273 34.2954L49.8013 37.3754H49.8673V27.0354H53.0133V42.3914H49.3613L45.1593 35.1314ZM67.1952 42.3914H55.5572V39.4214L63.1472 29.9834H55.9312V27.0354H67.0192V30.0054L59.4072 39.4434H67.1952V42.3914Z" fill="white"/>
</svg>
