<svg width="16" height="16" viewBox="0 0 16 16" fill="none" xmlns="http://www.w3.org/2000/svg">
<g clip-path="url(#clip0)">
<path d="M12.1385 8.43906L4.73802 15.8191C4.49555 16.0607 4.10299 16.0603 3.86093 15.8178C3.61906 15.5753 3.61968 15.1826 3.86218 14.9407L10.8222 7.99997L3.86193 1.05925C3.61946 0.817376 3.61884 0.424847 3.86068 0.182347C3.98202 0.0607853 4.14099 3.8147e-06 4.29996 3.8147e-06C4.45852 3.8147e-06 4.61686 0.060379 4.73799 0.181097L12.1385 7.56091C12.2553 7.6771 12.3208 7.83522 12.3208 7.99997C12.3208 8.16472 12.2551 8.32266 12.1385 8.43906Z" fill="black"/>
<path d="M12.1385 8.43906L4.73802 15.8191C4.49555 16.0607 4.10299 16.0603 3.86093 15.8178C3.61906 15.5753 3.61968 15.1826 3.86218 14.9407L10.8222 7.99997L3.86193 1.05925C3.61946 0.817376 3.61884 0.424847 3.86068 0.182347C3.98202 0.0607853 4.14099 3.8147e-06 4.29996 3.8147e-06C4.45852 3.8147e-06 4.61686 0.060379 4.73799 0.181097L12.1385 7.56091C12.2553 7.6771 12.3208 7.83522 12.3208 7.99997C12.3208 8.16472 12.2551 8.32266 12.1385 8.43906Z" fill="url(#paint0_linear)"/>
</g>
<defs>
<linearGradient id="paint0_linear" x1="8.00025" y1="16" x2="8.00025" y2="3.8147e-06" gradientUnits="userSpaceOnUse">
<stop stop-color="#59F37B"/>
<stop offset="1" stop-color="#08D8F4"/>
</linearGradient>
<clipPath id="clip0">
<rect width="16" height="16" fill="white" transform="matrix(1 0 0 -1 0 16)"/>
</clipPath>
</defs>
</svg>
