<svg width="26" height="26" viewBox="0 0 26 26" fill="none" xmlns="http://www.w3.org/2000/svg">
<path d="M19.725 13.7135L7.69928 25.706C7.30527 26.0987 6.66736 26.098 6.27401 25.704C5.88097 25.3099 5.88198 24.6717 6.27604 24.2787L17.586 13L6.27564 1.72128C5.88163 1.32823 5.88061 0.690372 6.2736 0.296312C6.47079 0.098774 6.72911 3.8147e-06 6.98743 3.8147e-06C7.2451 3.8147e-06 7.5024 0.0981121 7.69923 0.294279L19.725 12.2865C19.9148 12.4753 20.0213 12.7322 20.0213 13C20.0213 13.2677 19.9145 13.5243 19.725 13.7135Z" fill="black"/>
<path d="M19.725 13.7135L7.69928 25.706C7.30527 26.0987 6.66736 26.098 6.27401 25.704C5.88097 25.3099 5.88198 24.6717 6.27604 24.2787L17.586 13L6.27564 1.72128C5.88163 1.32823 5.88061 0.690372 6.2736 0.296312C6.47079 0.098774 6.72911 3.8147e-06 6.98743 3.8147e-06C7.2451 3.8147e-06 7.5024 0.0981121 7.69923 0.294279L19.725 12.2865C19.9148 12.4753 20.0213 12.7322 20.0213 13C20.0213 13.2677 19.9145 13.5243 19.725 13.7135Z" fill="url(#paint0_linear)"/>
<defs>
<linearGradient id="paint0_linear" x1="13.0004" y1="26" x2="13.0004" y2="3.8147e-06" gradientUnits="userSpaceOnUse">
<stop stop-color="#59F37B"/>
<stop offset="1" stop-color="#08D8F4"/>
</linearGradient>
</defs>
</svg>
