<svg width="19" height="19" viewBox="0 0 19 19" fill="none" xmlns="http://www.w3.org/2000/svg">
<path d="M9.50572 15.4227C9.50572 15.7574 9.31232 16.0615 9.00967 16.2034C8.89266 16.2588 8.76727 16.2855 8.64269 16.2855C8.44542 16.2855 8.24998 16.2177 8.09212 16.0868L3.3751 12.1781H0.862819C0.38638 12.1785 0 11.7919 0 11.3155V7.8779C0 7.40126 0.38638 7.01488 0.862819 7.01488H3.37531L8.09233 3.10615C8.35005 2.89254 8.70743 2.847 9.00988 2.98995C9.31232 3.13188 9.50592 3.43617 9.50592 3.77068L9.50572 15.4227ZM12.8216 14.0745C12.8006 14.0759 12.7803 14.0767 12.7595 14.0767C12.5316 14.0767 12.3119 13.9867 12.1495 13.8241L12.0341 13.7083C11.7315 13.4063 11.696 12.9278 11.9508 12.5843C12.597 11.7131 12.938 10.6804 12.938 9.597C12.938 8.43174 12.5508 7.33877 11.8181 6.43612C11.5391 6.09304 11.5648 5.59475 11.8775 5.28229L11.9927 5.16691C12.165 4.99455 12.396 4.90061 12.646 4.91552C12.8894 4.92777 13.1167 5.04234 13.2711 5.23104C14.2875 6.47472 14.8244 7.98471 14.8244 9.59721C14.8244 11.099 14.3496 12.5285 13.451 13.7306C13.3009 13.9309 13.0714 14.0567 12.8216 14.0745ZM16.3889 16.7409C16.2329 16.9254 16.0072 17.036 15.7656 17.0463C15.7538 17.0467 15.7417 17.0471 15.7295 17.0471C15.5009 17.0471 15.2816 16.9568 15.1193 16.7945L15.0059 16.6811C14.6892 16.3646 14.6677 15.8583 14.9557 15.5156C16.3472 13.8607 17.1138 11.7589 17.1138 9.597C17.1138 7.34836 16.2931 5.18366 14.8033 3.50172C14.5013 3.16027 14.5166 2.64339 14.838 2.32073L14.9512 2.20739C15.119 2.03871 15.3372 1.94579 15.5873 1.95375C15.8248 1.96049 16.0495 2.06546 16.2073 2.24313C18.0081 4.2706 19 6.88254 19 9.597C19.0004 12.2087 18.0731 14.7459 16.3889 16.7409Z" fill="black"/>
<path d="M9.50572 15.4227C9.50572 15.7574 9.31232 16.0615 9.00967 16.2034C8.89266 16.2588 8.76727 16.2855 8.64269 16.2855C8.44542 16.2855 8.24998 16.2177 8.09212 16.0868L3.3751 12.1781H0.862819C0.38638 12.1785 0 11.7919 0 11.3155V7.8779C0 7.40126 0.38638 7.01488 0.862819 7.01488H3.37531L8.09233 3.10615C8.35005 2.89254 8.70743 2.847 9.00988 2.98995C9.31232 3.13188 9.50592 3.43617 9.50592 3.77068L9.50572 15.4227ZM12.8216 14.0745C12.8006 14.0759 12.7803 14.0767 12.7595 14.0767C12.5316 14.0767 12.3119 13.9867 12.1495 13.8241L12.0341 13.7083C11.7315 13.4063 11.696 12.9278 11.9508 12.5843C12.597 11.7131 12.938 10.6804 12.938 9.597C12.938 8.43174 12.5508 7.33877 11.8181 6.43612C11.5391 6.09304 11.5648 5.59475 11.8775 5.28229L11.9927 5.16691C12.165 4.99455 12.396 4.90061 12.646 4.91552C12.8894 4.92777 13.1167 5.04234 13.2711 5.23104C14.2875 6.47472 14.8244 7.98471 14.8244 9.59721C14.8244 11.099 14.3496 12.5285 13.451 13.7306C13.3009 13.9309 13.0714 14.0567 12.8216 14.0745ZM16.3889 16.7409C16.2329 16.9254 16.0072 17.036 15.7656 17.0463C15.7538 17.0467 15.7417 17.0471 15.7295 17.0471C15.5009 17.0471 15.2816 16.9568 15.1193 16.7945L15.0059 16.6811C14.6892 16.3646 14.6677 15.8583 14.9557 15.5156C16.3472 13.8607 17.1138 11.7589 17.1138 9.597C17.1138 7.34836 16.2931 5.18366 14.8033 3.50172C14.5013 3.16027 14.5166 2.64339 14.838 2.32073L14.9512 2.20739C15.119 2.03871 15.3372 1.94579 15.5873 1.95375C15.8248 1.96049 16.0495 2.06546 16.2073 2.24313C18.0081 4.2706 19 6.88254 19 9.597C19.0004 12.2087 18.0731 14.7459 16.3889 16.7409Z" fill="url(#paint0_linear)"/>
<defs>
<linearGradient id="paint0_linear" x1="9.50003" y1="1.95328" x2="9.50003" y2="22.0783" gradientUnits="userSpaceOnUse">
<stop stop-color="#fff"/>
<stop offset="1" stop-color="#fff"/>
</linearGradient>
</defs>
</svg>
