<svg width="16" height="16" viewBox="0 0 16 16" fill="none" xmlns="http://www.w3.org/2000/svg">
<g clip-path="url(#clip0)">
<path d="M3.86151 8.43906L11.262 15.8191C11.5044 16.0607 11.897 16.0603 12.1391 15.8178C12.3809 15.5753 12.3803 15.1826 12.1378 14.9407L5.17785 7.99997L12.1381 1.05925C12.3805 0.817376 12.3812 0.424847 12.1393 0.182347C12.018 0.0607853 11.859 3.8147e-06 11.7 3.8147e-06C11.5415 3.8147e-06 11.3831 0.060379 11.262 0.181097L3.86151 7.56091C3.74473 7.6771 3.6792 7.83522 3.6792 7.99997C3.6792 8.16472 3.74492 8.32266 3.86151 8.43906Z" fill="black"/>
<path d="M3.86151 8.43906L11.262 15.8191C11.5044 16.0607 11.897 16.0603 12.1391 15.8178C12.3809 15.5753 12.3803 15.1826 12.1378 14.9407L5.17785 7.99997L12.1381 1.05925C12.3805 0.817376 12.3812 0.424847 12.1393 0.182347C12.018 0.0607853 11.859 3.8147e-06 11.7 3.8147e-06C11.5415 3.8147e-06 11.3831 0.060379 11.262 0.181097L3.86151 7.56091C3.74473 7.6771 3.6792 7.83522 3.6792 7.99997C3.6792 8.16472 3.74492 8.32266 3.86151 8.43906Z" fill="url(#paint0_linear)"/>
</g>
<defs>
<linearGradient id="paint0_linear" x1="7.99975" y1="16" x2="7.99975" y2="3.8147e-06" gradientUnits="userSpaceOnUse">
<stop stop-color="#59F37B"/>
<stop offset="1" stop-color="#08D8F4"/>
</linearGradient>
<clipPath id="clip0">
<rect width="16" height="16" fill="white" transform="translate(16 16) rotate(-180)"/>
</clipPath>
</defs>
</svg>
