<svg width="26" height="26" viewBox="0 0 26 26" fill="none" xmlns="http://www.w3.org/2000/svg">
<path d="M6.27495 13.7135L18.3007 25.706C18.6947 26.0987 19.3326 26.098 19.726 25.704C20.119 25.3099 20.118 24.6717 19.724 24.2787L8.414 13L19.7244 1.72128C20.1184 1.32823 20.1194 0.690372 19.7264 0.296312C19.5292 0.098774 19.2709 3.8147e-06 19.0126 3.8147e-06C18.7549 3.8147e-06 18.4976 0.0981121 18.3008 0.294279L6.27495 12.2865C6.08518 12.4753 5.97869 12.7322 5.97869 13C5.97869 13.2677 6.08549 13.5243 6.27495 13.7135Z" fill="black"/>
<path d="M6.27495 13.7135L18.3007 25.706C18.6947 26.0987 19.3326 26.098 19.726 25.704C20.119 25.3099 20.118 24.6717 19.724 24.2787L8.414 13L19.7244 1.72128C20.1184 1.32823 20.1194 0.690372 19.7264 0.296312C19.5292 0.098774 19.2709 3.8147e-06 19.0126 3.8147e-06C18.7549 3.8147e-06 18.4976 0.0981121 18.3008 0.294279L6.27495 12.2865C6.08518 12.4753 5.97869 12.7322 5.97869 13C5.97869 13.2677 6.08549 13.5243 6.27495 13.7135Z" fill="url(#paint0_linear)"/>
<defs>
<linearGradient id="paint0_linear" x1="12.9996" y1="26" x2="12.9996" y2="3.8147e-06" gradientUnits="userSpaceOnUse">
<stop stop-color="#59F37B"/>
<stop offset="1" stop-color="#08D8F4"/>
</linearGradient>
</defs>
</svg>
