<svg width="24" height="24" viewBox="0 0 24 24" fill="none" xmlns="http://www.w3.org/2000/svg">
<path d="M3.03508 15.58L7.79509 10.82C8.11509 10.5 8.61508 10.5 8.93508 10.82L10.4951 12.38L12.3751 10.5L10.8151 8.93999C10.4951 8.61999 10.4951 8.12 10.8151 7.8L15.5751 3.03999C15.8951 2.71999 16.3951 2.71999 16.7151 3.03999L20.9751 7.3C21.1351 7.46 21.2151 7.66001 21.2151 7.86001C21.2151 8.08001 21.1351 8.28002 20.9751 8.42002L16.2151 13.18C16.0551 13.34 15.8551 13.42 15.6551 13.42C15.4551 13.42 15.2551 13.34 15.0951 13.18L13.5351 11.62L11.6551 13.5L13.2151 15.06C13.5351 15.38 13.5351 15.88 13.2151 16.2L8.4551 20.96C8.2951 21.12 8.09509 21.2 7.89509 21.2C7.67509 21.2 7.47508 21.12 7.33508 20.96L3.07509 16.7C2.71509 16.4 2.71508 15.88 3.03508 15.58ZM15.6351 11.48L19.2551 7.86001L16.1351 4.73999L12.5151 8.36001L13.5151 9.36001L14.1151 8.76001C14.4351 8.44001 14.9351 8.44001 15.2551 8.76001C15.5751 9.08001 15.5751 9.58 15.2551 9.9L14.6551 10.5L15.6351 11.48ZM7.8551 19.26L11.4751 15.64L10.4751 14.64L9.87509 15.24C9.71509 15.4 9.51508 15.48 9.31508 15.48C9.11508 15.48 8.9151 15.4 8.7551 15.24C8.4351 14.92 8.4351 14.42 8.7551 14.1L9.3551 13.5L8.3551 12.5L4.73508 16.12L7.8551 19.26Z" fill="#B9B9B9"/>
</svg>
