<svg width="19" height="19" viewBox="0 0 19 19" fill="none" xmlns="http://www.w3.org/2000/svg">
<path d="M9.50572 15.4227C9.50572 15.7574 9.31232 16.0615 9.00967 16.2034C8.89266 16.2588 8.76727 16.2855 8.64269 16.2855C8.44542 16.2855 8.24998 16.2177 8.09212 16.0868L3.3751 12.1781H0.862819C0.38638 12.1785 0 11.7919 0 11.3155V7.87787C0 7.40123 0.38638 7.01485 0.862819 7.01485H3.37531L8.09233 3.10612C8.35005 2.89251 8.70743 2.84697 9.00988 2.98992C9.31232 3.13185 9.50592 3.43614 9.50592 3.77064L9.50572 15.4227ZM12.8216 14.0744C12.8006 14.0759 12.7803 14.0767 12.7595 14.0767C12.5316 14.0767 12.3119 13.9866 12.1495 13.8241L12.0341 13.7083C11.7315 13.4062 11.696 12.9278 11.9508 12.5843C12.597 11.7131 12.938 10.6803 12.938 9.59697C12.938 8.43171 12.5508 7.33874 11.8181 6.43609C11.5391 6.09301 11.5648 5.59472 11.8775 5.28226L11.9927 5.16688C12.165 4.99452 12.396 4.90058 12.646 4.91549C12.8894 4.92774 13.1167 5.04231 13.2711 5.231C14.2875 6.47469 14.8244 7.98468 14.8244 9.59718C14.8244 11.099 14.3496 12.5285 13.451 13.7305C13.3009 13.9309 13.0714 14.0567 12.8216 14.0744ZM16.3889 16.7409C16.2329 16.9253 16.0072 17.036 15.7656 17.0462C15.7538 17.0466 15.7417 17.047 15.7295 17.047C15.5009 17.047 15.2816 16.9568 15.1193 16.7944L15.0059 16.6811C14.6892 16.3645 14.6677 15.8583 14.9557 15.5156C16.3472 13.8606 17.1138 11.7588 17.1138 9.59697C17.1138 7.34833 16.2931 5.18363 14.8033 3.50169C14.5013 3.16024 14.5166 2.64336 14.838 2.3207L14.9512 2.20736C15.119 2.03867 15.3372 1.94576 15.5873 1.95372C15.8248 1.96046 16.0495 2.06543 16.2073 2.2431C18.0081 4.27057 19 6.88251 19 9.59697C19.0004 12.2087 18.0731 14.7459 16.3889 16.7409Z" fill="white"/>
<path d="M9.50572 15.4227C9.50572 15.7574 9.31232 16.0615 9.00967 16.2034C8.89266 16.2588 8.76727 16.2855 8.64269 16.2855C8.44542 16.2855 8.24998 16.2177 8.09212 16.0868L3.3751 12.1781H0.862819C0.38638 12.1785 0 11.7919 0 11.3155V7.87787C0 7.40123 0.38638 7.01485 0.862819 7.01485H3.37531L8.09233 3.10612C8.35005 2.89251 8.70743 2.84697 9.00988 2.98992C9.31232 3.13185 9.50592 3.43614 9.50592 3.77064L9.50572 15.4227ZM12.8216 14.0744C12.8006 14.0759 12.7803 14.0767 12.7595 14.0767C12.5316 14.0767 12.3119 13.9866 12.1495 13.8241L12.0341 13.7083C11.7315 13.4062 11.696 12.9278 11.9508 12.5843C12.597 11.7131 12.938 10.6803 12.938 9.59697C12.938 8.43171 12.5508 7.33874 11.8181 6.43609C11.5391 6.09301 11.5648 5.59472 11.8775 5.28226L11.9927 5.16688C12.165 4.99452 12.396 4.90058 12.646 4.91549C12.8894 4.92774 13.1167 5.04231 13.2711 5.231C14.2875 6.47469 14.8244 7.98468 14.8244 9.59718C14.8244 11.099 14.3496 12.5285 13.451 13.7305C13.3009 13.9309 13.0714 14.0567 12.8216 14.0744ZM16.3889 16.7409C16.2329 16.9253 16.0072 17.036 15.7656 17.0462C15.7538 17.0466 15.7417 17.047 15.7295 17.047C15.5009 17.047 15.2816 16.9568 15.1193 16.7944L15.0059 16.6811C14.6892 16.3645 14.6677 15.8583 14.9557 15.5156C16.3472 13.8606 17.1138 11.7588 17.1138 9.59697C17.1138 7.34833 16.2931 5.18363 14.8033 3.50169C14.5013 3.16024 14.5166 2.64336 14.838 2.3207L14.9512 2.20736C15.119 2.03867 15.3372 1.94576 15.5873 1.95372C15.8248 1.96046 16.0495 2.06543 16.2073 2.2431C18.0081 4.27057 19 6.88251 19 9.59697C19.0004 12.2087 18.0731 14.7459 16.3889 16.7409Z" fill="white"/>
<path d="M9.50572 15.4227C9.50572 15.7574 9.31232 16.0615 9.00967 16.2034C8.89266 16.2588 8.76727 16.2855 8.64269 16.2855C8.44542 16.2855 8.24998 16.2177 8.09212 16.0868L3.3751 12.1781H0.862819C0.38638 12.1785 0 11.7919 0 11.3155V7.87787C0 7.40123 0.38638 7.01485 0.862819 7.01485H3.37531L8.09233 3.10612C8.35005 2.89251 8.70743 2.84697 9.00988 2.98992C9.31232 3.13185 9.50592 3.43614 9.50592 3.77064L9.50572 15.4227ZM12.8216 14.0744C12.8006 14.0759 12.7803 14.0767 12.7595 14.0767C12.5316 14.0767 12.3119 13.9866 12.1495 13.8241L12.0341 13.7083C11.7315 13.4062 11.696 12.9278 11.9508 12.5843C12.597 11.7131 12.938 10.6803 12.938 9.59697C12.938 8.43171 12.5508 7.33874 11.8181 6.43609C11.5391 6.09301 11.5648 5.59472 11.8775 5.28226L11.9927 5.16688C12.165 4.99452 12.396 4.90058 12.646 4.91549C12.8894 4.92774 13.1167 5.04231 13.2711 5.231C14.2875 6.47469 14.8244 7.98468 14.8244 9.59718C14.8244 11.099 14.3496 12.5285 13.451 13.7305C13.3009 13.9309 13.0714 14.0567 12.8216 14.0744ZM16.3889 16.7409C16.2329 16.9253 16.0072 17.036 15.7656 17.0462C15.7538 17.0466 15.7417 17.047 15.7295 17.047C15.5009 17.047 15.2816 16.9568 15.1193 16.7944L15.0059 16.6811C14.6892 16.3645 14.6677 15.8583 14.9557 15.5156C16.3472 13.8606 17.1138 11.7588 17.1138 9.59697C17.1138 7.34833 16.2931 5.18363 14.8033 3.50169C14.5013 3.16024 14.5166 2.64336 14.838 2.3207L14.9512 2.20736C15.119 2.03867 15.3372 1.94576 15.5873 1.95372C15.8248 1.96046 16.0495 2.06543 16.2073 2.2431C18.0081 4.27057 19 6.88251 19 9.59697C19.0004 12.2087 18.0731 14.7459 16.3889 16.7409Z" fill="white"/>
</svg>
